<mxfile host="app.diagrams.net" modified="2022-04-11T07:48:43.986Z" agent="5.0 (Windows NT 10.0; Win64; x64) AppleWebKit/537.36 (KHTML, like Gecko) Chrome/100.0.4896.75 Safari/537.36" etag="gEPdfDzYgqTN2PT3PWjG" version="17.1.5" type="github">
  <diagram name="Page-1" id="74e2e168-ea6b-b213-b513-2b3c1d86103e">
    <mxGraphModel dx="2736" dy="2514" grid="1" gridSize="10" guides="1" tooltips="1" connect="1" arrows="1" fold="1" page="1" pageScale="1" pageWidth="1100" pageHeight="850" background="none" math="0" shadow="0">
      <root>
        <mxCell id="0" />
        <mxCell id="1" parent="0" />
        <mxCell id="7BBMDYZycmkGAkKfoM8b-6" value="" style="edgeStyle=orthogonalEdgeStyle;rounded=0;orthogonalLoop=1;jettySize=auto;html=1;fontSize=20;" edge="1" parent="1" source="7BBMDYZycmkGAkKfoM8b-3" target="7BBMDYZycmkGAkKfoM8b-5">
          <mxGeometry relative="1" as="geometry" />
        </mxCell>
        <mxCell id="7BBMDYZycmkGAkKfoM8b-15" value="否" style="edgeLabel;html=1;align=center;verticalAlign=middle;resizable=0;points=[];fontSize=20;" vertex="1" connectable="0" parent="7BBMDYZycmkGAkKfoM8b-6">
          <mxGeometry x="-0.2781" y="4" relative="1" as="geometry">
            <mxPoint as="offset" />
          </mxGeometry>
        </mxCell>
        <mxCell id="7BBMDYZycmkGAkKfoM8b-17" value="是" style="edgeStyle=orthogonalEdgeStyle;rounded=0;orthogonalLoop=1;jettySize=auto;html=1;fontSize=20;" edge="1" parent="1" source="7BBMDYZycmkGAkKfoM8b-3" target="7BBMDYZycmkGAkKfoM8b-16">
          <mxGeometry relative="1" as="geometry" />
        </mxCell>
        <mxCell id="7BBMDYZycmkGAkKfoM8b-3" value="连续测量？" style="rhombus;whiteSpace=wrap;html=1;rounded=0;fontSize=20;" vertex="1" parent="1">
          <mxGeometry x="442.5" y="245" width="195" height="60" as="geometry" />
        </mxCell>
        <mxCell id="7BBMDYZycmkGAkKfoM8b-66" value="" style="edgeStyle=orthogonalEdgeStyle;rounded=0;orthogonalLoop=1;jettySize=auto;html=1;fontSize=20;" edge="1" parent="1" source="7BBMDYZycmkGAkKfoM8b-5" target="7BBMDYZycmkGAkKfoM8b-65">
          <mxGeometry relative="1" as="geometry" />
        </mxCell>
        <mxCell id="7BBMDYZycmkGAkKfoM8b-5" value="单点测量" style="whiteSpace=wrap;html=1;fontSize=20;rounded=0;" vertex="1" parent="1">
          <mxGeometry x="265" y="365" width="120" height="60" as="geometry" />
        </mxCell>
        <mxCell id="7BBMDYZycmkGAkKfoM8b-14" style="edgeStyle=orthogonalEdgeStyle;rounded=0;orthogonalLoop=1;jettySize=auto;html=1;entryX=0.5;entryY=0;entryDx=0;entryDy=0;fontSize=20;" edge="1" parent="1" source="7BBMDYZycmkGAkKfoM8b-9" target="7BBMDYZycmkGAkKfoM8b-3">
          <mxGeometry relative="1" as="geometry" />
        </mxCell>
        <mxCell id="7BBMDYZycmkGAkKfoM8b-9" value="初始化：&lt;br&gt;串口配置、文件路径配置" style="rounded=0;whiteSpace=wrap;html=1;fontSize=20;" vertex="1" parent="1">
          <mxGeometry x="385" y="155" width="310" height="60" as="geometry" />
        </mxCell>
        <mxCell id="7BBMDYZycmkGAkKfoM8b-13" style="edgeStyle=orthogonalEdgeStyle;rounded=0;orthogonalLoop=1;jettySize=auto;html=1;entryX=0.5;entryY=0;entryDx=0;entryDy=0;fontSize=20;" edge="1" parent="1" source="7BBMDYZycmkGAkKfoM8b-11" target="7BBMDYZycmkGAkKfoM8b-9">
          <mxGeometry relative="1" as="geometry" />
        </mxCell>
        <mxCell id="7BBMDYZycmkGAkKfoM8b-11" value="开始" style="ellipse;whiteSpace=wrap;html=1;rounded=0;fontSize=20;" vertex="1" parent="1">
          <mxGeometry x="480" y="80" width="120" height="50" as="geometry" />
        </mxCell>
        <mxCell id="7BBMDYZycmkGAkKfoM8b-32" style="edgeStyle=orthogonalEdgeStyle;rounded=0;orthogonalLoop=1;jettySize=auto;html=1;entryX=0.5;entryY=0;entryDx=0;entryDy=0;fontSize=20;" edge="1" parent="1" source="7BBMDYZycmkGAkKfoM8b-16" target="7BBMDYZycmkGAkKfoM8b-29">
          <mxGeometry relative="1" as="geometry" />
        </mxCell>
        <mxCell id="7BBMDYZycmkGAkKfoM8b-16" value="连续测量" style="whiteSpace=wrap;html=1;fontSize=20;rounded=0;" vertex="1" parent="1">
          <mxGeometry x="480" y="365" width="120" height="60" as="geometry" />
        </mxCell>
        <mxCell id="7BBMDYZycmkGAkKfoM8b-21" value="否" style="edgeStyle=orthogonalEdgeStyle;rounded=0;orthogonalLoop=1;jettySize=auto;html=1;fontSize=20;" edge="1" parent="1" source="7BBMDYZycmkGAkKfoM8b-18" target="7BBMDYZycmkGAkKfoM8b-20">
          <mxGeometry x="0.5736" relative="1" as="geometry">
            <mxPoint as="offset" />
          </mxGeometry>
        </mxCell>
        <mxCell id="7BBMDYZycmkGAkKfoM8b-23" value="是" style="edgeStyle=orthogonalEdgeStyle;rounded=0;orthogonalLoop=1;jettySize=auto;html=1;fontSize=20;" edge="1" parent="1" source="7BBMDYZycmkGAkKfoM8b-18" target="7BBMDYZycmkGAkKfoM8b-22">
          <mxGeometry relative="1" as="geometry" />
        </mxCell>
        <mxCell id="7BBMDYZycmkGAkKfoM8b-18" value="debug mode？" style="rhombus;whiteSpace=wrap;html=1;rounded=0;fontSize=20;" vertex="1" parent="1">
          <mxGeometry x="227.5" y="620" width="195" height="60" as="geometry" />
        </mxCell>
        <mxCell id="7BBMDYZycmkGAkKfoM8b-36" value="" style="edgeStyle=orthogonalEdgeStyle;rounded=0;orthogonalLoop=1;jettySize=auto;html=1;fontSize=20;" edge="1" parent="1" source="7BBMDYZycmkGAkKfoM8b-20" target="7BBMDYZycmkGAkKfoM8b-35">
          <mxGeometry relative="1" as="geometry" />
        </mxCell>
        <mxCell id="7BBMDYZycmkGAkKfoM8b-20" value="事件结构触发（单点）" style="whiteSpace=wrap;html=1;fontSize=20;rounded=0;" vertex="1" parent="1">
          <mxGeometry x="90" y="760" width="120" height="60" as="geometry" />
        </mxCell>
        <mxCell id="7BBMDYZycmkGAkKfoM8b-37" style="edgeStyle=orthogonalEdgeStyle;rounded=0;orthogonalLoop=1;jettySize=auto;html=1;entryX=0.5;entryY=0;entryDx=0;entryDy=0;fontSize=20;" edge="1" parent="1" source="7BBMDYZycmkGAkKfoM8b-22" target="7BBMDYZycmkGAkKfoM8b-35">
          <mxGeometry relative="1" as="geometry" />
        </mxCell>
        <mxCell id="7BBMDYZycmkGAkKfoM8b-22" value="随机数生成测量数据" style="whiteSpace=wrap;html=1;fontSize=20;rounded=0;" vertex="1" parent="1">
          <mxGeometry x="265" y="760" width="120" height="60" as="geometry" />
        </mxCell>
        <mxCell id="7BBMDYZycmkGAkKfoM8b-27" value="否" style="edgeStyle=orthogonalEdgeStyle;rounded=0;orthogonalLoop=1;jettySize=auto;html=1;fontSize=20;" edge="1" source="7BBMDYZycmkGAkKfoM8b-29" target="7BBMDYZycmkGAkKfoM8b-30" parent="1">
          <mxGeometry relative="1" as="geometry" />
        </mxCell>
        <mxCell id="7BBMDYZycmkGAkKfoM8b-28" value="是" style="edgeStyle=orthogonalEdgeStyle;rounded=0;orthogonalLoop=1;jettySize=auto;html=1;fontSize=20;" edge="1" source="7BBMDYZycmkGAkKfoM8b-29" target="7BBMDYZycmkGAkKfoM8b-31" parent="1">
          <mxGeometry relative="1" as="geometry" />
        </mxCell>
        <mxCell id="7BBMDYZycmkGAkKfoM8b-29" value="debug mode？" style="rhombus;whiteSpace=wrap;html=1;rounded=0;fontSize=20;" vertex="1" parent="1">
          <mxGeometry x="442.5" y="460" width="195" height="60" as="geometry" />
        </mxCell>
        <mxCell id="7BBMDYZycmkGAkKfoM8b-50" style="edgeStyle=orthogonalEdgeStyle;rounded=0;orthogonalLoop=1;jettySize=auto;html=1;entryX=0.5;entryY=0;entryDx=0;entryDy=0;fontSize=20;" edge="1" parent="1" source="7BBMDYZycmkGAkKfoM8b-30" target="7BBMDYZycmkGAkKfoM8b-41">
          <mxGeometry relative="1" as="geometry" />
        </mxCell>
        <mxCell id="7BBMDYZycmkGAkKfoM8b-51" style="edgeStyle=orthogonalEdgeStyle;rounded=0;orthogonalLoop=1;jettySize=auto;html=1;entryX=0.5;entryY=0;entryDx=0;entryDy=0;fontSize=20;" edge="1" parent="1" source="7BBMDYZycmkGAkKfoM8b-30" target="7BBMDYZycmkGAkKfoM8b-40">
          <mxGeometry relative="1" as="geometry">
            <Array as="points">
              <mxPoint x="780" y="640" />
              <mxPoint x="640" y="640" />
            </Array>
          </mxGeometry>
        </mxCell>
        <mxCell id="7BBMDYZycmkGAkKfoM8b-53" style="edgeStyle=orthogonalEdgeStyle;rounded=0;orthogonalLoop=1;jettySize=auto;html=1;fontSize=20;" edge="1" parent="1" source="7BBMDYZycmkGAkKfoM8b-30" target="7BBMDYZycmkGAkKfoM8b-42">
          <mxGeometry relative="1" as="geometry">
            <Array as="points">
              <mxPoint x="780" y="640" />
              <mxPoint x="920" y="640" />
            </Array>
          </mxGeometry>
        </mxCell>
        <mxCell id="7BBMDYZycmkGAkKfoM8b-54" style="edgeStyle=orthogonalEdgeStyle;rounded=0;orthogonalLoop=1;jettySize=auto;html=1;entryX=0.5;entryY=0;entryDx=0;entryDy=0;fontSize=20;" edge="1" parent="1" source="7BBMDYZycmkGAkKfoM8b-30" target="7BBMDYZycmkGAkKfoM8b-43">
          <mxGeometry relative="1" as="geometry">
            <Array as="points">
              <mxPoint x="780" y="640" />
              <mxPoint x="1060" y="640" />
            </Array>
          </mxGeometry>
        </mxCell>
        <mxCell id="7BBMDYZycmkGAkKfoM8b-93" style="edgeStyle=orthogonalEdgeStyle;rounded=0;orthogonalLoop=1;jettySize=auto;html=1;entryX=0.5;entryY=0;entryDx=0;entryDy=0;fontSize=20;" edge="1" parent="1" source="7BBMDYZycmkGAkKfoM8b-30" target="7BBMDYZycmkGAkKfoM8b-38">
          <mxGeometry relative="1" as="geometry">
            <Array as="points">
              <mxPoint x="780" y="640" />
              <mxPoint x="1210" y="640" />
            </Array>
          </mxGeometry>
        </mxCell>
        <mxCell id="7BBMDYZycmkGAkKfoM8b-30" value="选择模式" style="whiteSpace=wrap;html=1;fontSize=20;rounded=0;" vertex="1" parent="1">
          <mxGeometry x="720" y="560" width="120" height="60" as="geometry" />
        </mxCell>
        <mxCell id="7BBMDYZycmkGAkKfoM8b-94" style="edgeStyle=orthogonalEdgeStyle;rounded=0;orthogonalLoop=1;jettySize=auto;html=1;fontSize=20;" edge="1" parent="1" source="7BBMDYZycmkGAkKfoM8b-31" target="7BBMDYZycmkGAkKfoM8b-70">
          <mxGeometry relative="1" as="geometry">
            <Array as="points">
              <mxPoint x="540" y="1055" />
            </Array>
          </mxGeometry>
        </mxCell>
        <mxCell id="7BBMDYZycmkGAkKfoM8b-31" value="随机数生成测量数据" style="whiteSpace=wrap;html=1;fontSize=20;rounded=0;" vertex="1" parent="1">
          <mxGeometry x="480" y="560" width="120" height="60" as="geometry" />
        </mxCell>
        <mxCell id="7BBMDYZycmkGAkKfoM8b-83" value="" style="edgeStyle=orthogonalEdgeStyle;rounded=0;orthogonalLoop=1;jettySize=auto;html=1;fontSize=20;" edge="1" parent="1" source="7BBMDYZycmkGAkKfoM8b-35" target="7BBMDYZycmkGAkKfoM8b-82">
          <mxGeometry relative="1" as="geometry" />
        </mxCell>
        <mxCell id="7BBMDYZycmkGAkKfoM8b-35" value="&lt;span&gt;测量数据写入&lt;br&gt;预设文件中&lt;/span&gt;" style="shape=parallelogram;perimeter=parallelogramPerimeter;whiteSpace=wrap;html=1;fixedSize=1;fontSize=20;rounded=0;" vertex="1" parent="1">
          <mxGeometry x="150" y="910" width="160" height="90" as="geometry" />
        </mxCell>
        <mxCell id="7BBMDYZycmkGAkKfoM8b-97" style="edgeStyle=orthogonalEdgeStyle;rounded=0;orthogonalLoop=1;jettySize=auto;html=1;fontSize=20;" edge="1" parent="1" source="7BBMDYZycmkGAkKfoM8b-38" target="7BBMDYZycmkGAkKfoM8b-88">
          <mxGeometry relative="1" as="geometry">
            <Array as="points">
              <mxPoint x="1210" y="1120" />
              <mxPoint x="840" y="1120" />
            </Array>
          </mxGeometry>
        </mxCell>
        <mxCell id="7BBMDYZycmkGAkKfoM8b-38" value="零位校准" style="whiteSpace=wrap;html=1;fontSize=20;rounded=0;" vertex="1" parent="1">
          <mxGeometry x="1150" y="690" width="120" height="60" as="geometry" />
        </mxCell>
        <mxCell id="7BBMDYZycmkGAkKfoM8b-58" value="" style="edgeStyle=orthogonalEdgeStyle;rounded=0;orthogonalLoop=1;jettySize=auto;html=1;fontSize=20;" edge="1" parent="1" source="7BBMDYZycmkGAkKfoM8b-40" target="7BBMDYZycmkGAkKfoM8b-57">
          <mxGeometry relative="1" as="geometry" />
        </mxCell>
        <mxCell id="7BBMDYZycmkGAkKfoM8b-40" value="绝对位置（有位置设定）" style="whiteSpace=wrap;html=1;fontSize=20;rounded=0;" vertex="1" parent="1">
          <mxGeometry x="580" y="690" width="120" height="90" as="geometry" />
        </mxCell>
        <mxCell id="7BBMDYZycmkGAkKfoM8b-60" value="" style="edgeStyle=orthogonalEdgeStyle;rounded=0;orthogonalLoop=1;jettySize=auto;html=1;fontSize=20;" edge="1" parent="1" source="7BBMDYZycmkGAkKfoM8b-41" target="7BBMDYZycmkGAkKfoM8b-59">
          <mxGeometry relative="1" as="geometry" />
        </mxCell>
        <mxCell id="7BBMDYZycmkGAkKfoM8b-41" value="读相对零" style="whiteSpace=wrap;html=1;fontSize=20;rounded=0;" vertex="1" parent="1">
          <mxGeometry x="720" y="690" width="120" height="60" as="geometry" />
        </mxCell>
        <mxCell id="7BBMDYZycmkGAkKfoM8b-62" value="" style="edgeStyle=orthogonalEdgeStyle;rounded=0;orthogonalLoop=1;jettySize=auto;html=1;fontSize=20;" edge="1" parent="1" source="7BBMDYZycmkGAkKfoM8b-42" target="7BBMDYZycmkGAkKfoM8b-61">
          <mxGeometry relative="1" as="geometry" />
        </mxCell>
        <mxCell id="7BBMDYZycmkGAkKfoM8b-42" value="读低限" style="whiteSpace=wrap;html=1;fontSize=20;rounded=0;" vertex="1" parent="1">
          <mxGeometry x="860" y="690" width="120" height="60" as="geometry" />
        </mxCell>
        <mxCell id="7BBMDYZycmkGAkKfoM8b-64" value="" style="edgeStyle=orthogonalEdgeStyle;rounded=0;orthogonalLoop=1;jettySize=auto;html=1;fontSize=20;" edge="1" parent="1" source="7BBMDYZycmkGAkKfoM8b-43" target="7BBMDYZycmkGAkKfoM8b-63">
          <mxGeometry relative="1" as="geometry" />
        </mxCell>
        <mxCell id="7BBMDYZycmkGAkKfoM8b-43" value="读高限" style="whiteSpace=wrap;html=1;fontSize=20;rounded=0;" vertex="1" parent="1">
          <mxGeometry x="1000" y="690" width="120" height="60" as="geometry" />
        </mxCell>
        <mxCell id="7BBMDYZycmkGAkKfoM8b-73" style="edgeStyle=orthogonalEdgeStyle;rounded=0;orthogonalLoop=1;jettySize=auto;html=1;entryX=0.5;entryY=0;entryDx=0;entryDy=0;fontSize=20;" edge="1" parent="1" source="7BBMDYZycmkGAkKfoM8b-57" target="7BBMDYZycmkGAkKfoM8b-70">
          <mxGeometry relative="1" as="geometry">
            <Array as="points">
              <mxPoint x="640" y="950" />
              <mxPoint x="840" y="950" />
            </Array>
          </mxGeometry>
        </mxCell>
        <mxCell id="7BBMDYZycmkGAkKfoM8b-57" value="绝对位置&lt;br&gt;返回值" style="shape=parallelogram;perimeter=parallelogramPerimeter;whiteSpace=wrap;html=1;fixedSize=1;fontSize=20;rounded=0;" vertex="1" parent="1">
          <mxGeometry x="580" y="830" width="120" height="60" as="geometry" />
        </mxCell>
        <mxCell id="7BBMDYZycmkGAkKfoM8b-72" style="edgeStyle=orthogonalEdgeStyle;rounded=0;orthogonalLoop=1;jettySize=auto;html=1;entryX=0.5;entryY=0;entryDx=0;entryDy=0;fontSize=20;" edge="1" parent="1" source="7BBMDYZycmkGAkKfoM8b-59" target="7BBMDYZycmkGAkKfoM8b-70">
          <mxGeometry relative="1" as="geometry" />
        </mxCell>
        <mxCell id="7BBMDYZycmkGAkKfoM8b-59" value="相对零位置" style="shape=parallelogram;perimeter=parallelogramPerimeter;whiteSpace=wrap;html=1;fixedSize=1;fontSize=20;rounded=0;" vertex="1" parent="1">
          <mxGeometry x="715" y="830" width="130" height="60" as="geometry" />
        </mxCell>
        <mxCell id="7BBMDYZycmkGAkKfoM8b-71" style="edgeStyle=orthogonalEdgeStyle;rounded=0;orthogonalLoop=1;jettySize=auto;html=1;fontSize=20;" edge="1" parent="1" source="7BBMDYZycmkGAkKfoM8b-61" target="7BBMDYZycmkGAkKfoM8b-70">
          <mxGeometry relative="1" as="geometry" />
        </mxCell>
        <mxCell id="7BBMDYZycmkGAkKfoM8b-61" value="读低限位置" style="shape=parallelogram;perimeter=parallelogramPerimeter;whiteSpace=wrap;html=1;fixedSize=1;fontSize=20;rounded=0;" vertex="1" parent="1">
          <mxGeometry x="855" y="830" width="130" height="60" as="geometry" />
        </mxCell>
        <mxCell id="7BBMDYZycmkGAkKfoM8b-74" style="edgeStyle=orthogonalEdgeStyle;rounded=0;orthogonalLoop=1;jettySize=auto;html=1;fontSize=20;entryX=0.5;entryY=0;entryDx=0;entryDy=0;" edge="1" parent="1" source="7BBMDYZycmkGAkKfoM8b-63" target="7BBMDYZycmkGAkKfoM8b-70">
          <mxGeometry relative="1" as="geometry">
            <mxPoint x="840" y="1000" as="targetPoint" />
            <Array as="points">
              <mxPoint x="1060" y="950" />
              <mxPoint x="840" y="950" />
            </Array>
          </mxGeometry>
        </mxCell>
        <mxCell id="7BBMDYZycmkGAkKfoM8b-63" value="读高限位置" style="shape=parallelogram;perimeter=parallelogramPerimeter;whiteSpace=wrap;html=1;fixedSize=1;fontSize=20;rounded=0;" vertex="1" parent="1">
          <mxGeometry x="995" y="830" width="130" height="60" as="geometry" />
        </mxCell>
        <mxCell id="7BBMDYZycmkGAkKfoM8b-67" value="" style="edgeStyle=orthogonalEdgeStyle;rounded=0;orthogonalLoop=1;jettySize=auto;html=1;fontSize=20;" edge="1" parent="1" source="7BBMDYZycmkGAkKfoM8b-65" target="7BBMDYZycmkGAkKfoM8b-18">
          <mxGeometry relative="1" as="geometry" />
        </mxCell>
        <mxCell id="7BBMDYZycmkGAkKfoM8b-65" value="预设存储&lt;br&gt;文件" style="whiteSpace=wrap;html=1;fontSize=20;rounded=0;" vertex="1" parent="1">
          <mxGeometry x="265" y="480" width="120" height="60" as="geometry" />
        </mxCell>
        <mxCell id="7BBMDYZycmkGAkKfoM8b-89" value="" style="edgeStyle=orthogonalEdgeStyle;rounded=0;orthogonalLoop=1;jettySize=auto;html=1;fontSize=20;" edge="1" parent="1" source="7BBMDYZycmkGAkKfoM8b-70" target="7BBMDYZycmkGAkKfoM8b-88">
          <mxGeometry relative="1" as="geometry" />
        </mxCell>
        <mxCell id="7BBMDYZycmkGAkKfoM8b-70" value="&lt;span&gt;测量数据写入&lt;br&gt;预设文件中&lt;/span&gt;" style="shape=parallelogram;perimeter=parallelogramPerimeter;whiteSpace=wrap;html=1;fixedSize=1;fontSize=20;rounded=0;" vertex="1" parent="1">
          <mxGeometry x="760" y="1010" width="160" height="90" as="geometry" />
        </mxCell>
        <mxCell id="7BBMDYZycmkGAkKfoM8b-75" value="结束" style="ellipse;whiteSpace=wrap;html=1;fontSize=20;rounded=0;" vertex="1" parent="1">
          <mxGeometry x="430" y="1300" width="120" height="60" as="geometry" />
        </mxCell>
        <mxCell id="7BBMDYZycmkGAkKfoM8b-84" style="edgeStyle=orthogonalEdgeStyle;rounded=0;orthogonalLoop=1;jettySize=auto;html=1;exitX=0;exitY=0.5;exitDx=0;exitDy=0;fontSize=20;entryX=0.5;entryY=0;entryDx=0;entryDy=0;" edge="1" parent="1" source="7BBMDYZycmkGAkKfoM8b-82" target="7BBMDYZycmkGAkKfoM8b-18">
          <mxGeometry relative="1" as="geometry">
            <mxPoint x="30" y="580" as="targetPoint" />
            <Array as="points">
              <mxPoint x="30" y="1070" />
              <mxPoint x="30" y="580" />
              <mxPoint x="325" y="580" />
            </Array>
          </mxGeometry>
        </mxCell>
        <mxCell id="7BBMDYZycmkGAkKfoM8b-85" value="否" style="edgeLabel;html=1;align=center;verticalAlign=middle;resizable=0;points=[];fontSize=20;" vertex="1" connectable="0" parent="7BBMDYZycmkGAkKfoM8b-84">
          <mxGeometry x="-0.7153" y="-5" relative="1" as="geometry">
            <mxPoint y="-230" as="offset" />
          </mxGeometry>
        </mxCell>
        <mxCell id="7BBMDYZycmkGAkKfoM8b-87" style="edgeStyle=orthogonalEdgeStyle;rounded=0;orthogonalLoop=1;jettySize=auto;html=1;fontSize=20;entryX=0.5;entryY=0;entryDx=0;entryDy=0;" edge="1" parent="1" source="7BBMDYZycmkGAkKfoM8b-82" target="7BBMDYZycmkGAkKfoM8b-75">
          <mxGeometry relative="1" as="geometry">
            <mxPoint x="490" y="1130" as="targetPoint" />
            <Array as="points">
              <mxPoint x="230" y="1170" />
              <mxPoint x="490" y="1170" />
            </Array>
          </mxGeometry>
        </mxCell>
        <mxCell id="7BBMDYZycmkGAkKfoM8b-82" value="退出？" style="rhombus;whiteSpace=wrap;html=1;rounded=0;fontSize=20;" vertex="1" parent="1">
          <mxGeometry x="132.5" y="1040" width="195" height="60" as="geometry" />
        </mxCell>
        <mxCell id="7BBMDYZycmkGAkKfoM8b-90" style="edgeStyle=orthogonalEdgeStyle;rounded=0;orthogonalLoop=1;jettySize=auto;html=1;fontSize=20;" edge="1" parent="1" source="7BBMDYZycmkGAkKfoM8b-88" target="7BBMDYZycmkGAkKfoM8b-75">
          <mxGeometry relative="1" as="geometry" />
        </mxCell>
        <mxCell id="7BBMDYZycmkGAkKfoM8b-96" value="是" style="edgeLabel;html=1;align=center;verticalAlign=middle;resizable=0;points=[];fontSize=20;" vertex="1" connectable="0" parent="7BBMDYZycmkGAkKfoM8b-90">
          <mxGeometry x="-0.6177" y="1" relative="1" as="geometry">
            <mxPoint x="1" as="offset" />
          </mxGeometry>
        </mxCell>
        <mxCell id="7BBMDYZycmkGAkKfoM8b-91" style="edgeStyle=orthogonalEdgeStyle;rounded=0;orthogonalLoop=1;jettySize=auto;html=1;entryX=0.5;entryY=0;entryDx=0;entryDy=0;fontSize=20;" edge="1" parent="1" source="7BBMDYZycmkGAkKfoM8b-88" target="7BBMDYZycmkGAkKfoM8b-29">
          <mxGeometry relative="1" as="geometry">
            <Array as="points">
              <mxPoint x="1310" y="1170" />
              <mxPoint x="1310" y="440" />
              <mxPoint x="540" y="440" />
            </Array>
          </mxGeometry>
        </mxCell>
        <mxCell id="7BBMDYZycmkGAkKfoM8b-95" value="否" style="edgeLabel;html=1;align=center;verticalAlign=middle;resizable=0;points=[];fontSize=20;" vertex="1" connectable="0" parent="7BBMDYZycmkGAkKfoM8b-91">
          <mxGeometry x="-0.261" y="-1" relative="1" as="geometry">
            <mxPoint y="1" as="offset" />
          </mxGeometry>
        </mxCell>
        <mxCell id="7BBMDYZycmkGAkKfoM8b-88" value="退出？" style="rhombus;whiteSpace=wrap;html=1;rounded=0;fontSize=20;" vertex="1" parent="1">
          <mxGeometry x="742.5" y="1140" width="195" height="60" as="geometry" />
        </mxCell>
        <mxCell id="7BBMDYZycmkGAkKfoM8b-99" value="文件路径配置子vi" style="whiteSpace=wrap;html=1;rounded=0;fontSize=20;" vertex="1" parent="1">
          <mxGeometry x="-260" y="155" width="200" height="60" as="geometry" />
        </mxCell>
        <mxCell id="7BBMDYZycmkGAkKfoM8b-100" value="随机数生成子vi" style="whiteSpace=wrap;html=1;rounded=0;fontSize=20;" vertex="1" parent="1">
          <mxGeometry x="-260" y="540" width="200" height="60" as="geometry" />
        </mxCell>
      </root>
    </mxGraphModel>
  </diagram>
</mxfile>
